M48
;Layer_Color=9474304
;FILE_FORMAT=2:5
INCH,LZ
;TYPE=PLATED
T01F00S00C0.01575
T02F00S00C0.03150
T03F00S00C0.03937
%
T01
X03827Y0227503
X03728Y02744
X03629Y02666
X03534Y03167
X03316Y03452
X03349Y03507
X03254Y03722
X03288Y03759
T02
X0403543Y0202756
X0425197
X044685
Y0246063
X0425197
X0403543
T03
X0485157Y0230315
X0495157
X0521496Y0230315
X0531496
X0561024Y0227284
Y0237283
X0562992Y0279528
Y0289528
Y0299528
X0418898Y0298976
Y0308976
X0372047Y019685
X0362047
X0352047
X0342047
X0332047
X0322047
X0312047
X0302047
X0298701Y0388701
X0308701
Y0398701
X0298701
X0318701
Y0388701
X0328701
X0338701
X0348701
X0358701
X0368701
X0378701
X0388701
X0398701
X0408701
X0418701
X0428701
X0438701
X0448701
X0458701
X0468701
Y0398701
X0458701
X0448701
X0438701
X0428701
X0418701
X0408701
X0398701
X0388701
X0378701
X0368701
X0358701
X0348701
X0338701
X0328701
X0418898Y0338976
Y0328976
Y0318976
X0460157Y0364173
X0470157
X0480157
X0490157
X0500157
X0510157
X0520157
X0530157
X057874Y0362362
Y0352362
Y0372362
X0488701Y0388701
X0478701
Y0398701
X0488701
M30
