G04*
G04 #@! TF.GenerationSoftware,Altium Limited,Altium Designer,26.10.1 (5)*
G04*
G04 Layer_Color=65535*
G04 Board_Origin=0|0*
%FSLAX25Y25*%
%MOIN*%
G70*
G04*
G04 #@! TF.SameCoordinates,3E47F905-0254-449F-8387-3A09ED9BA6D4*
G04*
G04*
G04 #@! TF.FilePolarity,Positive*
G04*
G01*
G75*
%ADD10C,0.01000*%
%ADD11C,0.00000*%
%ADD12C,0.00500*%
%ADD13C,0.00787*%
%ADD14C,0.00591*%
D10*
X284252Y370472D02*
G03*
X277165Y363386I0J-7087D01*
G01*
X426772D02*
G03*
X419685Y370472I-7087J0D01*
G01*
X277165Y275197D02*
G03*
X284252Y268110I7087J0D01*
G01*
X419685D02*
G03*
X426772Y275197I0J7087D01*
G01*
X297323Y192126D02*
X376851D01*
X297323Y255118D02*
X376851D01*
X297323Y192126D02*
Y255118D01*
X376851Y192126D02*
Y255118D01*
X284252Y370472D02*
X419685D01*
X284252Y268110D02*
X419685D01*
X426772Y275197D02*
Y363386D01*
X277165Y275197D02*
Y363386D01*
Y335039D02*
X288976D01*
X277165Y303543D02*
X288976D01*
Y335039D01*
X277165Y303543D02*
Y335039D01*
X555118Y392047D02*
X586614D01*
X555118Y332992D02*
X586614D01*
Y392047D01*
X555118Y332992D02*
Y392047D01*
X555118Y259842D02*
X586614D01*
X555118Y318898D02*
X586614D01*
X555118Y259842D02*
Y318898D01*
X586614Y259842D02*
Y318898D01*
X293701Y383701D02*
X493937D01*
X494095Y383858D01*
Y403150D01*
X493701Y403543D02*
X494095Y403150D01*
X293701Y383701D02*
Y399213D01*
Y403543D02*
X493701D01*
X293701Y399213D02*
Y403543D01*
X559599Y327398D02*
X558599Y328398D01*
X556600D01*
X555600Y327398D01*
Y326399D01*
X556600Y325399D01*
X558599D01*
X559599Y324399D01*
Y323400D01*
X558599Y322400D01*
X556600D01*
X555600Y323400D01*
X561598Y328398D02*
Y322400D01*
X563597Y324399D01*
X565597Y322400D01*
Y328398D01*
X567596Y322400D02*
X569595D01*
X568596D01*
Y328398D01*
X567596Y327398D01*
X298200Y264598D02*
Y259600D01*
X299200Y258600D01*
X301199D01*
X302199Y259600D01*
Y264598D01*
X304198Y263598D02*
X305198Y264598D01*
X307197D01*
X308197Y263598D01*
Y262599D01*
X307197Y261599D01*
X306197D01*
X307197D01*
X308197Y260599D01*
Y259600D01*
X307197Y258600D01*
X305198D01*
X304198Y259600D01*
X559599Y400498D02*
X558599Y401498D01*
X556600D01*
X555600Y400498D01*
Y399499D01*
X556600Y398499D01*
X558599D01*
X559599Y397499D01*
Y396500D01*
X558599Y395500D01*
X556600D01*
X555600Y396500D01*
X561598Y401498D02*
Y395500D01*
X563597Y397499D01*
X565597Y395500D01*
Y401498D01*
X571595Y395500D02*
X567596D01*
X571595Y399499D01*
Y400498D01*
X570595Y401498D01*
X568596D01*
X567596Y400498D01*
X277700Y379998D02*
Y375000D01*
X278700Y374000D01*
X280699D01*
X281699Y375000D01*
Y379998D01*
X283698Y374000D02*
X285697D01*
X284698D01*
Y379998D01*
X283698Y378998D01*
X398300Y252500D02*
Y258498D01*
X401299D01*
X402299Y257498D01*
Y255499D01*
X401299Y254499D01*
X398300D01*
X400299D02*
X402299Y252500D01*
X404298D02*
X406297D01*
X405298D01*
Y258498D01*
X404298Y257498D01*
X420000Y252500D02*
Y258498D01*
X422999D01*
X423999Y257498D01*
Y255499D01*
X422999Y254499D01*
X420000D01*
X421999D02*
X423999Y252500D01*
X429997D02*
X425998D01*
X429997Y256499D01*
Y257498D01*
X428997Y258498D01*
X426998D01*
X425998Y257498D01*
X441600Y252500D02*
Y258498D01*
X444599D01*
X445599Y257498D01*
Y255499D01*
X444599Y254499D01*
X441600D01*
X443599D02*
X445599Y252500D01*
X447598Y257498D02*
X448598Y258498D01*
X450597D01*
X451597Y257498D01*
Y256499D01*
X450597Y255499D01*
X449597D01*
X450597D01*
X451597Y254499D01*
Y253500D01*
X450597Y252500D01*
X448598D01*
X447598Y253500D01*
X454700Y379598D02*
Y374600D01*
X455700Y373600D01*
X457699D01*
X458699Y374600D01*
Y379598D01*
X464697Y373600D02*
X460698D01*
X464697Y377599D01*
Y378598D01*
X463697Y379598D01*
X461698D01*
X460698Y378598D01*
X547600Y255698D02*
Y249700D01*
X550599D01*
X551599Y250700D01*
Y254698D01*
X550599Y255698D01*
X547600D01*
X553598Y254698D02*
X554598Y255698D01*
X556597D01*
X557597Y254698D01*
Y253699D01*
X556597Y252699D01*
X555597D01*
X556597D01*
X557597Y251699D01*
Y250700D01*
X556597Y249700D01*
X554598D01*
X553598Y250700D01*
X476700Y253698D02*
Y247700D01*
X479699D01*
X480699Y248700D01*
Y252698D01*
X479699Y253698D01*
X476700D01*
X486697Y247700D02*
X482698D01*
X486697Y251699D01*
Y252698D01*
X485697Y253698D01*
X483698D01*
X482698Y252698D01*
X513100Y253698D02*
Y247700D01*
X516099D01*
X517099Y248700D01*
Y252698D01*
X516099Y253698D01*
X513100D01*
X519098Y247700D02*
X521097D01*
X520098D01*
Y253698D01*
X519098Y252698D01*
D11*
X567823Y243701D02*
G03*
X567823Y243701I-500J0D01*
G01*
X479240Y236614D02*
G03*
X479240Y236614I-500J0D01*
G01*
X515579Y236614D02*
G03*
X515579Y236614I-500J0D01*
G01*
D12*
X570866Y232283D02*
G03*
X570866Y232283I-9843J0D01*
G01*
X572638D02*
G03*
X572638Y232283I-11614J0D01*
G01*
X500000Y230315D02*
G03*
X500000Y230315I-9843J0D01*
G01*
X501772D02*
G03*
X501772Y230315I-11614J0D01*
G01*
X536339Y230315D02*
G03*
X536339Y230315I-9843J0D01*
G01*
X538110D02*
G03*
X538110Y230315I-11614J0D01*
G01*
X441732Y211024D02*
X446850D01*
X451968D01*
Y237795D01*
X446850D02*
X451968D01*
X441732D02*
X446850D01*
X441732Y211024D02*
Y237795D01*
X446850Y206378D02*
Y211024D01*
Y237795D02*
Y242441D01*
X420079Y211024D02*
X425197D01*
X430315D01*
Y237795D01*
X425197D02*
X430315D01*
X420079D02*
X425197D01*
X420079Y211024D02*
Y237795D01*
X425197Y206378D02*
Y211024D01*
Y237795D02*
Y242441D01*
X398425Y211024D02*
X403543D01*
X408661D01*
Y237795D01*
X403543D02*
X408661D01*
X398425D02*
X403543D01*
X398425Y211024D02*
Y237795D01*
X403543Y206378D02*
Y211024D01*
Y237795D02*
Y242441D01*
D13*
X454094Y303307D02*
Y370236D01*
Y303307D02*
X536772D01*
Y369921D01*
X454094Y370236D02*
X536457D01*
X454252Y358268D02*
X536929D01*
D14*
X299833Y205228D02*
X299308Y204703D01*
Y203654D01*
X299833Y203129D01*
X301932D01*
X302457Y203654D01*
Y204703D01*
X301932Y205228D01*
X300882D01*
Y204179D01*
X302457Y206278D02*
X299308D01*
X302457Y208377D01*
X299308D01*
Y209426D02*
X302457D01*
Y211000D01*
X301932Y211525D01*
X299833D01*
X299308Y211000D01*
Y209426D01*
X309308Y203129D02*
X311407D01*
X312457Y204179D01*
X311407Y205228D01*
X309308D01*
X309833Y208377D02*
X309308Y207852D01*
Y206802D01*
X309833Y206278D01*
X311932D01*
X312457Y206802D01*
Y207852D01*
X311932Y208377D01*
X309833Y211525D02*
X309308Y211000D01*
Y209951D01*
X309833Y209426D01*
X311932D01*
X312457Y209951D01*
Y211000D01*
X311932Y211525D01*
X319833Y205228D02*
X319308Y204703D01*
Y203654D01*
X319833Y203129D01*
X321932D01*
X322457Y203654D01*
Y204703D01*
X321932Y205228D01*
X319833Y208377D02*
X319308Y207852D01*
Y206802D01*
X319833Y206278D01*
X320358D01*
X320882Y206802D01*
Y207852D01*
X321407Y208377D01*
X321932D01*
X322457Y207852D01*
Y206802D01*
X321932Y206278D01*
X329308Y203129D02*
Y204179D01*
Y203654D01*
X332457D01*
Y203129D01*
Y204179D01*
Y205753D02*
X329308D01*
X332457Y207852D01*
X329308D01*
Y208901D02*
Y211000D01*
Y209951D01*
X332457D01*
Y212050D02*
Y213100D01*
Y212575D01*
X329308D01*
X329833Y212050D01*
X339308Y203129D02*
Y204179D01*
Y203654D01*
X342457D01*
Y203129D01*
Y204179D01*
Y205753D02*
X339308D01*
X342457Y207852D01*
X339308D01*
Y208901D02*
Y211000D01*
Y209951D01*
X342457D01*
Y214149D02*
Y212050D01*
X340358Y214149D01*
X339833D01*
X339308Y213624D01*
Y212575D01*
X339833Y212050D01*
X349833Y205228D02*
X349308Y204703D01*
Y203654D01*
X349833Y203129D01*
X350358D01*
X350882Y203654D01*
Y204703D01*
X351407Y205228D01*
X351932D01*
X352457Y204703D01*
Y203654D01*
X351932Y203129D01*
X349308Y206278D02*
X352457D01*
Y207852D01*
X351932Y208377D01*
X349833D01*
X349308Y207852D01*
Y206278D01*
Y211000D02*
Y209951D01*
X349833Y209426D01*
X351932D01*
X352457Y209951D01*
Y211000D01*
X351932Y211525D01*
X349833D01*
X349308Y211000D01*
X359833Y205228D02*
X359308Y204703D01*
Y203654D01*
X359833Y203129D01*
X360358D01*
X360882Y203654D01*
Y204703D01*
X361407Y205228D01*
X361932D01*
X362457Y204703D01*
Y203654D01*
X361932Y203129D01*
X359308Y206278D02*
X362457D01*
Y207852D01*
X361932Y208377D01*
X359833D01*
X359308Y207852D01*
Y206278D01*
X362457Y209426D02*
X360358D01*
X359308Y210476D01*
X360358Y211525D01*
X362457D01*
X360882D01*
Y209426D01*
X369833Y205228D02*
X369308Y204703D01*
Y203654D01*
X369833Y203129D01*
X370358D01*
X370882Y203654D01*
Y204703D01*
X371407Y205228D01*
X371932D01*
X372457Y204703D01*
Y203654D01*
X371932Y203129D01*
X369833Y208377D02*
X369308Y207852D01*
Y206802D01*
X369833Y206278D01*
X371932D01*
X372457Y206802D01*
Y207852D01*
X371932Y208377D01*
X369308Y209426D02*
X372457D01*
Y211525D01*
X525841Y333268D02*
X528465D01*
X529777Y334579D01*
X528465Y335891D01*
X525841D01*
X526497Y339827D02*
X525841Y339171D01*
Y337859D01*
X526497Y337203D01*
X529121D01*
X529777Y337859D01*
Y339171D01*
X529121Y339827D01*
X526497Y343763D02*
X525841Y343107D01*
Y341795D01*
X526497Y341139D01*
X529121D01*
X529777Y341795D01*
Y343107D01*
X529121Y343763D01*
X530433Y345075D02*
Y347699D01*
X525841Y349011D02*
Y350323D01*
Y349667D01*
X529777D01*
Y349011D01*
Y350323D01*
Y352290D02*
X525841D01*
X529777Y354914D01*
X525841D01*
X517311Y341139D02*
X516655Y341795D01*
Y343107D01*
X517311Y343763D01*
X517967D01*
X518623Y343107D01*
Y342451D01*
Y343107D01*
X519279Y343763D01*
X519935D01*
X520590Y343107D01*
Y341795D01*
X519935Y341139D01*
X520590Y345075D02*
X519935D01*
Y345731D01*
X520590D01*
Y345075D01*
X517311Y348355D02*
X516655Y349011D01*
Y350323D01*
X517311Y350978D01*
X517967D01*
X518623Y350323D01*
Y349667D01*
Y350323D01*
X519279Y350978D01*
X519935D01*
X520590Y350323D01*
Y349011D01*
X519935Y348355D01*
X516655Y352290D02*
X519279D01*
X520590Y353602D01*
X519279Y354914D01*
X516655D01*
X507468Y347043D02*
X506812Y346387D01*
Y345075D01*
X507468Y344419D01*
X510092D01*
X510748Y345075D01*
Y346387D01*
X510092Y347043D01*
X508780D01*
Y345731D01*
X510748Y348355D02*
X506812D01*
X510748Y350978D01*
X506812D01*
Y352290D02*
X510748D01*
Y354258D01*
X510092Y354914D01*
X507468D01*
X506812Y354258D01*
Y352290D01*
X497626Y347043D02*
X496970Y346387D01*
Y345075D01*
X497626Y344419D01*
X498282D01*
X498938Y345075D01*
Y346387D01*
X499594Y347043D01*
X500249D01*
X500906Y346387D01*
Y345075D01*
X500249Y344419D01*
X497626Y350978D02*
X496970Y350323D01*
Y349011D01*
X497626Y348355D01*
X500249D01*
X500906Y349011D01*
Y350323D01*
X500249Y350978D01*
X496970Y352290D02*
X500906D01*
Y354914D01*
X487783Y347043D02*
X487127Y346387D01*
Y345075D01*
X487783Y344419D01*
X488439D01*
X489095Y345075D01*
Y346387D01*
X489751Y347043D01*
X490407D01*
X491063Y346387D01*
Y345075D01*
X490407Y344419D01*
X487127Y348355D02*
X491063D01*
Y350323D01*
X490407Y350978D01*
X487783D01*
X487127Y350323D01*
Y348355D01*
X491063Y352290D02*
X488439D01*
X487127Y353602D01*
X488439Y354914D01*
X491063D01*
X489095D01*
Y352290D01*
X477285Y339171D02*
Y336547D01*
X479253D01*
Y337859D01*
Y336547D01*
X481220D01*
X477941Y343107D02*
X477285Y342451D01*
Y341139D01*
X477941Y340483D01*
X478597D01*
X479253Y341139D01*
Y342451D01*
X479909Y343107D01*
X480564D01*
X481220Y342451D01*
Y341139D01*
X480564Y340483D01*
X477285Y344419D02*
X477941D01*
X479253Y345731D01*
X477941Y347043D01*
X477285D01*
X479253Y345731D02*
X481220D01*
Y348355D02*
X477285D01*
X481220Y350978D01*
X477285D01*
X477941Y354914D02*
X477285Y354258D01*
Y352946D01*
X477941Y352290D01*
X480564D01*
X481220Y352946D01*
Y354258D01*
X480564Y354914D01*
X467442Y341139D02*
Y342451D01*
Y341795D01*
X471378D01*
Y341139D01*
Y342451D01*
Y344419D02*
X467442D01*
X471378Y347043D01*
X467442D01*
Y348355D02*
Y350978D01*
Y349667D01*
X471378D01*
Y352290D02*
X468754D01*
X467442Y353602D01*
X468754Y354914D01*
X471378D01*
X469410D01*
Y352290D01*
X457600Y340483D02*
X461535D01*
Y342451D01*
X460879Y343107D01*
X458256D01*
X457600Y342451D01*
Y340483D01*
X461535Y344419D02*
X457600D01*
Y346387D01*
X458256Y347043D01*
X459567D01*
X460223Y346387D01*
Y344419D01*
Y345731D02*
X461535Y347043D01*
X457600Y348355D02*
X461535D01*
Y350323D01*
X460879Y350978D01*
X458256D01*
X457600Y350323D01*
Y348355D01*
Y352290D02*
X458256D01*
X459567Y353602D01*
X458256Y354914D01*
X457600D01*
X459567Y353602D02*
X461535D01*
X403676Y299016D02*
Y302164D01*
X405250D01*
X405775Y301639D01*
Y300590D01*
X405250Y300065D01*
X403676D01*
X406825Y299016D02*
Y302164D01*
X408399D01*
X408924Y301639D01*
Y300590D01*
X408399Y300065D01*
X406825D01*
X412072Y301639D02*
X411548Y302164D01*
X410498D01*
X409973Y301639D01*
Y301115D01*
X410498Y300590D01*
X411548D01*
X412072Y300065D01*
Y299540D01*
X411548Y299016D01*
X410498D01*
X409973Y299540D01*
X403676Y312007D02*
X405775D01*
X404726D01*
Y308858D01*
X406825Y312007D02*
X408924Y308858D01*
Y312007D02*
X406825Y308858D01*
X409973Y312007D02*
Y308858D01*
X411548D01*
X412072Y309383D01*
Y311482D01*
X411548Y312007D01*
X409973D01*
X403676Y319094D02*
Y322243D01*
X405250D01*
X405775Y321718D01*
Y320669D01*
X405250Y320144D01*
X403676D01*
X404726D02*
X405775Y319094D01*
X406825Y322243D02*
X408924Y319094D01*
Y322243D02*
X406825Y319094D01*
X409973Y322243D02*
Y319094D01*
X411548D01*
X412072Y319619D01*
Y321718D01*
X411548Y322243D01*
X409973D01*
X405775Y331561D02*
X405250Y332085D01*
X404201D01*
X403676Y331561D01*
Y329462D01*
X404201Y328937D01*
X405250D01*
X405775Y329462D01*
Y330511D01*
X404726D01*
X406825Y328937D02*
Y332085D01*
X408924Y328937D01*
Y332085D01*
X409973D02*
Y328937D01*
X411548D01*
X412072Y329462D01*
Y331561D01*
X411548Y332085D01*
X409973D01*
X403676Y342321D02*
Y340223D01*
X404726Y339173D01*
X405775Y340223D01*
Y342321D01*
X408924Y341797D02*
X408399Y342321D01*
X407349D01*
X406824Y341797D01*
Y339698D01*
X407349Y339173D01*
X408399D01*
X408924Y339698D01*
X412072Y341797D02*
X411547Y342321D01*
X410498D01*
X409973Y341797D01*
Y339698D01*
X410498Y339173D01*
X411547D01*
X412072Y339698D01*
X570479Y366560D02*
X568380D01*
X567331Y365511D01*
X568380Y364461D01*
X570479D01*
X569955Y361313D02*
X570479Y361837D01*
Y362887D01*
X569955Y363412D01*
X567856D01*
X567331Y362887D01*
Y361837D01*
X567856Y361313D01*
X569955Y358164D02*
X570479Y358689D01*
Y359738D01*
X569955Y360263D01*
X567856D01*
X567331Y359738D01*
Y358689D01*
X567856Y358164D01*
X569955Y351313D02*
X570479Y351837D01*
Y352887D01*
X569955Y353412D01*
X569430D01*
X568905Y352887D01*
Y351837D01*
X568380Y351313D01*
X567856D01*
X567331Y351837D01*
Y352887D01*
X567856Y353412D01*
X569955Y376461D02*
X570479Y376986D01*
Y378035D01*
X569955Y378560D01*
X567856D01*
X567331Y378035D01*
Y376986D01*
X567856Y376461D01*
X568905D01*
Y377511D01*
X567331Y375412D02*
X570479D01*
X567331Y373313D01*
X570479D01*
Y372263D02*
X567331D01*
Y370689D01*
X567856Y370164D01*
X569955D01*
X570479Y370689D01*
Y372263D01*
X571253Y285329D02*
X573352D01*
X574402Y286379D01*
X573352Y287428D01*
X571253D01*
X571778Y290577D02*
X571253Y290052D01*
Y289003D01*
X571778Y288478D01*
X573877D01*
X574402Y289003D01*
Y290052D01*
X573877Y290577D01*
X571778Y293726D02*
X571253Y293201D01*
Y292151D01*
X571778Y291627D01*
X573877D01*
X574402Y292151D01*
Y293201D01*
X573877Y293726D01*
X571778Y300577D02*
X571253Y300052D01*
Y299003D01*
X571778Y298478D01*
X572302D01*
X572827Y299003D01*
Y300052D01*
X573352Y300577D01*
X573877D01*
X574402Y300052D01*
Y299003D01*
X573877Y298478D01*
X571778Y275429D02*
X571253Y274904D01*
Y273854D01*
X571778Y273329D01*
X573877D01*
X574402Y273854D01*
Y274904D01*
X573877Y275429D01*
X572827D01*
Y274379D01*
X574402Y276478D02*
X571253D01*
X574402Y278577D01*
X571253D01*
Y279627D02*
X574402D01*
Y281201D01*
X573877Y281726D01*
X571778D01*
X571253Y281201D01*
Y279627D01*
M02*
